<svg xmlns="http://www.w3.org/2000/svg" width="859" height="768" viewBox="0 0 859 768">
<g>
<path d="M 457.00 364.14 C444.79,366.51 411.77,367.51 398.50,365.90 C346.13,359.56 298.90,336.14 244.50,289.54 C225.98,273.67 182.70,230.50 181.01,226.20 C179.97,223.55 179.96,222.07 180.95,218.70 C181.98,215.18 186.26,210.44 207.34,189.49 C233.48,163.50 244.55,153.49 266.50,135.99 C324.48,89.79 384.93,69.84 443.66,77.54 C493.51,84.08 533.96,103.04 581.80,142.31 C608.51,164.24 648.49,202.41 656.89,214.00 C660.25,218.65 660.92,223.71 658.70,227.71 C656.63,231.43 630.39,258.53 614.52,273.33 C556.45,327.49 511.13,353.62 457.00,364.14 ZM 401.50 333.02 C438.53,339.72 476.81,327.10 502.60,299.70 C525.42,275.45 536.22,244.92 534.75,208.79 C534.46,201.66 534.57,196.20 535.00,196.66 C536.86,198.68 543.01,216.23 544.56,223.94 C546.81,235.13 546.09,258.94 543.16,270.00 C539.90,282.33 532.66,298.67 527.29,305.82 C525.92,307.64 525.03,309.37 525.32,309.65 C526.31,310.65 551.18,292.89 563.50,282.38 C586.56,262.70 595.63,254.52 609.75,240.62 C619.74,230.79 626.00,223.88 626.00,222.68 C626.00,216.96 578.29,172.19 547.21,148.75 L 535.60 140.00 L 503.79 140.00 L 498.75 135.47 C485.72,123.75 467.84,114.33 449.00,109.25 C440.51,106.97 437.58,106.69 421.50,106.65 C402.55,106.60 397.53,107.40 380.53,113.22 C355.24,121.87 331.06,143.23 318.53,168.00 C306.03,192.70 303.22,224.28 311.07,251.77 C316.65,271.33 325.05,285.74 339.22,300.11 C356.97,318.11 376.71,328.54 401.50,333.02 ZM 503.00 633.83 C495.47,637.30 478.14,638.01 470.50,635.18 C462.32,632.14 459.74,630.47 454.34,624.76 C448.26,618.34 444.52,611.36 442.53,602.76 C436.54,576.87 442.09,551.39 456.63,537.99 C463.70,531.47 470.36,528.90 481.84,528.27 C495.89,527.49 504.83,530.41 513.62,538.64 C517.05,541.85 522.97,550.77 524.80,555.50 C529.17,566.73 530.43,589.54 527.39,601.94 C523.76,616.66 514.78,628.41 503.00,633.83 ZM 391.00 265.64 C391.00,286.19 390.66,303.00 390.25,303.00 C389.84,303.00 385.79,301.15 381.27,298.89 L 373.03 294.79 L 372.77 268.64 L 372.50 242.50 L 359.16 254.91 C348.61,264.73 345.61,267.03 344.83,265.91 C341.83,261.63 336.85,249.48 337.63,248.36 C338.11,247.67 348.38,238.65 360.45,228.30 C372.53,217.96 386.25,206.18 390.95,202.12 C405.48,189.58 408.04,189.33 420.16,199.25 C435.69,211.97 440.91,216.03 442.48,216.63 C444.17,217.28 444.90,216.63 473.83,188.77 L 489.17 174.00 L 481.04 174.00 C473.74,174.00 472.66,173.75 470.45,171.55 C467.35,168.44 467.33,164.89 470.41,161.31 L 472.82 158.50 L 519.50 158.50 L 519.78 177.50 C519.94,187.95 519.81,197.54 519.50,198.82 C518.83,201.54 512.81,204.42 509.52,203.60 C507.92,203.19 506.59,201.15 504.54,195.93 L 501.75 188.80 L 494.87 195.63 L 488.00 202.45 L 487.98 239.97 L 487.97 277.50 L 485.23 280.51 C481.52,284.60 472.92,292.00 471.87,292.00 C471.41,292.00 470.91,275.41 470.76,255.14 L 470.50 218.27 L 460.04 228.10 C448.93,238.54 445.58,240.61 441.48,239.58 C440.07,239.23 431.95,233.33 423.44,226.47 C414.93,219.61 407.71,214.00 407.40,214.00 C407.08,214.00 403.26,217.21 398.91,221.14 L 391.00 228.28 ZM 402.78 636.49 C394.25,638.50 388.88,638.30 379.90,635.64 C358.55,629.32 347.59,609.57 349.32,580.54 C349.65,575.02 350.62,567.80 351.48,564.50 C355.37,549.56 364.61,537.38 376.50,531.53 C382.16,528.74 383.21,528.57 395.00,528.53 C406.08,528.50 408.10,528.77 412.79,530.89 C415.85,532.27 419.73,535.15 422.00,537.74 C426.07,542.36 430.69,552.72 429.29,554.09 C428.86,554.52 424.51,554.97 419.64,555.08 C410.78,555.29 410.78,555.29 408.30,552.13 C404.84,547.70 401.01,546.00 394.51,546.00 C381.31,546.00 372.15,556.61 369.55,574.91 L 368.92 579.32 L 373.36 575.23 C382.24,567.05 392.41,563.95 404.05,565.87 C412.96,567.34 417.47,569.62 422.68,575.27 C427.62,580.63 428.88,582.88 430.63,589.45 C433.33,599.57 431.65,612.40 426.64,619.97 C420.74,628.88 413.35,634.00 402.78,636.49 ZM 299.09 298.88 C310.26,307.02 313.00,308.75 313.00,307.65 C313.00,307.46 310.49,303.55 307.41,298.96 C293.01,277.44 285.26,255.84 282.93,230.70 C280.37,203.14 287.16,173.09 300.89,151.17 C303.70,146.69 306.00,142.55 306.00,141.97 C306.00,140.13 282.51,157.00 267.00,169.97 C245.34,188.10 214.00,218.96 214.00,222.18 C214.00,223.81 233.04,242.96 251.50,259.89 C268.97,275.92 280.09,285.03 299.09,298.88 ZM 310.00 636.94 C292.64,639.73 277.45,635.63 268.28,625.69 C263.43,620.42 260.55,615.07 259.57,609.50 C259.18,607.30 258.62,604.49 258.32,603.25 C257.79,601.02 257.88,601.00 268.89,601.00 L 280.00 601.00 L 280.00 603.54 C280.00,606.64 283.06,612.84 285.83,615.35 C291.05,620.07 303.27,621.43 309.91,618.04 C317.74,614.05 321.38,606.56 319.15,599.09 C317.03,592.03 311.08,589.02 299.25,589.01 L 293.00 589.00 L 293.00 574.43 L 300.95 573.37 C305.32,572.78 310.08,571.52 311.53,570.57 C316.64,567.22 318.28,558.13 314.90,551.82 C311.70,545.84 298.29,543.88 290.57,548.27 C286.46,550.61 282.08,557.52 282.03,561.75 C282.00,563.94 281.72,564.00 271.36,564.00 L 260.72 564.00 L 261.32 558.92 C262.69,547.42 270.97,536.21 281.80,531.22 C287.04,528.80 288.59,528.59 301.00,528.55 C313.75,528.50 314.83,528.66 320.50,531.31 C323.80,532.85 327.55,535.10 328.84,536.31 C335.49,542.52 338.86,553.91 336.83,563.36 C335.49,569.62 329.65,576.21 323.30,578.63 L 318.76 580.36 L 323.63 581.77 C334.56,584.93 339.98,592.97 339.98,606.00 C339.98,611.76 339.44,614.66 337.65,618.50 C333.26,627.90 322.79,634.88 310.00,636.94 ZM 174.00 496.71 C174.00,499.00 173.97,499.00 159.00,499.00 C144.79,499.00 144.00,498.90 144.00,497.05 C144.00,495.70 145.36,494.49 148.35,493.17 C149.27,492.76 149.96,492.57 150.57,492.24 C153.20,490.81 154.45,486.85 167.37,452.50 C171.51,441.50 177.11,426.65 179.83,419.50 L 184.78 406.50 L 199.38 406.50 L 207.51 427.00 C211.98,438.27 219.16,456.50 223.46,467.50 C227.75,478.50 231.89,488.51 232.65,489.74 C233.42,490.98 235.57,492.63 237.45,493.41 C240.15,494.54 240.74,495.27 240.31,496.92 C239.78,498.94 239.18,499.00 219.88,499.00 L 200.00 499.00 L 200.00 496.68 C200.00,494.83 200.76,494.16 203.72,493.43 C206.04,492.85 207.95,491.56 208.81,490.00 C210.04,487.76 209.86,486.61 207.00,478.75 L 203.81 470.00 L 170.19 470.00 L 167.04 478.71 C163.11,489.57 163.45,491.59 169.52,493.22 C173.18,494.19 174.00,494.84 174.00,496.71 ZM 278.00 496.52 L 278.00 499.00 L 262.06 499.00 C253.29,499.00 245.87,498.59 245.56,498.09 C244.57,496.50 246.14,494.00 248.48,493.41 C249.73,493.10 251.26,491.73 251.87,490.38 C253.28,487.30 253.42,448.65 252.04,446.07 C251.51,445.08 249.71,443.71 248.04,443.02 C242.97,440.92 244.04,438.32 250.75,436.44 C253.91,435.55 258.72,434.19 261.43,433.41 C264.14,432.63 267.41,432.00 268.68,432.00 C270.86,432.00 271.00,432.38 271.00,438.35 L 271.00 444.69 L 275.25 440.71 C277.59,438.52 281.91,435.61 284.87,434.24 C289.42,432.12 291.25,431.82 297.01,432.23 C305.32,432.83 309.35,435.36 312.38,441.91 C314.28,446.03 314.55,448.80 315.00,469.00 L 315.50 491.50 L 318.68 493.00 C321.67,494.41 323.48,497.19 322.22,498.44 C321.92,498.75 314.32,499.00 305.33,499.00 C289.95,499.00 289.00,498.89 289.00,497.10 C289.00,496.00 290.42,494.36 292.34,493.22 L 295.69 491.25 L 296.20 480.88 C296.67,471.12 296.67,466.30 296.20,454.67 C295.74,443.41 282.90,440.02 273.75,448.75 L 271.00 451.37 L 271.00 470.25 C271.00,480.64 271.44,489.95 271.97,490.95 C272.51,491.95 274.08,493.06 275.47,493.40 C277.33,493.87 278.00,494.70 278.00,496.52 ZM 477.89 617.49 C490.86,621.63 502.76,613.91 506.62,598.84 C508.96,589.72 508.11,570.75 504.99,562.59 C502.17,555.19 495.70,548.41 490.53,547.44 C484.49,546.31 477.39,547.47 473.11,550.31 C465.11,555.60 460.13,571.54 461.38,587.84 C462.69,604.85 467.96,614.32 477.89,617.49 ZM 662.79 498.06 C658.60,500.25 646.92,500.72 643.50,498.84 C636.44,494.94 633.54,487.80 635.87,480.04 C638.23,472.17 643.08,468.70 659.00,463.50 C672.33,459.15 673.00,458.68 672.99,453.72 C672.98,443.17 669.24,438.30 661.90,439.29 C656.86,439.96 654.32,442.19 652.80,447.28 C651.81,450.57 650.87,451.56 647.22,453.12 C640.40,456.04 639.00,455.71 639.00,451.16 C639.00,445.00 642.72,439.18 648.88,435.70 C653.53,433.07 655.46,432.63 663.86,432.23 C676.14,431.65 680.74,432.86 685.28,437.89 C690.04,443.16 691.00,448.48 691.00,469.61 C691.00,479.78 691.43,487.94 692.04,489.07 C692.79,490.48 694.14,491.00 697.04,491.00 C700.55,491.00 701.00,491.27 701.00,493.39 C701.00,496.88 693.90,500.00 685.95,500.00 C678.62,500.00 676.57,499.03 674.21,494.43 L 672.41 490.91 L 669.46 493.52 C667.83,494.95 664.83,496.99 662.79,498.06 ZM 357.79 498.10 C355.14,499.46 351.99,500.00 346.77,500.00 C340.66,500.00 338.87,499.60 335.84,497.54 C331.77,494.77 330.00,490.77 330.00,484.30 C330.00,474.71 335.89,469.34 352.04,464.19 C355.63,463.05 360.70,461.20 363.29,460.09 C367.91,458.11 368.00,457.98 368.00,453.56 C368.00,448.15 365.46,441.32 362.95,439.97 C359.93,438.36 354.44,438.87 351.71,441.01 C350.31,442.12 348.40,445.02 347.46,447.46 C345.99,451.31 345.17,452.09 341.21,453.45 C334.79,455.63 334.00,455.47 334.00,451.97 C334.00,445.15 338.57,438.31 345.50,434.75 C350.40,432.24 365.35,431.19 371.70,432.91 C376.57,434.23 381.67,438.19 383.31,441.91 C383.99,443.44 384.67,453.31 384.98,466.10 C385.57,490.38 385.74,491.00 392.19,491.00 C395.70,491.00 396.10,491.25 395.82,493.22 C395.28,497.00 388.63,499.96 380.67,499.98 C374.45,500.00 373.59,499.74 370.92,497.08 C369.32,495.47 368.00,493.44 368.00,492.58 C368.00,490.30 366.69,490.63 363.92,493.60 C362.59,495.03 359.83,497.05 357.79,498.10 ZM 434.00 496.50 L 434.00 499.00 L 417.00 499.00 C400.74,499.00 400.00,498.91 400.00,497.03 C400.00,495.86 401.18,494.44 402.88,493.56 C404.46,492.74 406.04,491.35 406.38,490.46 C406.72,489.56 407.00,472.03 407.00,451.49 L 407.00 451.11 C407.00,419.44 407.00,412.78 404.28,411.37 C403.56,411.00 402.64,411.00 401.48,411.00 L 401.43 411.00 C399.50,411.00 399.00,410.48 399.00,408.50 C399.00,407.12 399.19,406.00 399.43,406.00 C399.67,406.00 405.10,404.65 411.50,403.00 C417.90,401.35 423.78,400.00 424.57,400.00 C425.79,400.00 426.00,406.55 426.00,444.55 L 426.00 489.09 L 428.45 491.55 C429.80,492.90 431.60,494.00 432.45,494.00 C433.44,494.00 434.00,494.91 434.00,496.50 ZM 569.58 576.10 C560.08,580.42 546.89,577.07 540.69,568.77 C532.60,557.93 535.39,539.79 546.31,532.35 C558.01,524.37 574.70,528.22 580.88,540.33 C587.70,553.68 582.47,570.25 569.58,576.10 ZM 613.56 498.41 C608.77,500.41 596.06,500.40 590.39,498.38 C584.02,496.12 578.44,490.70 574.93,483.36 C571.98,477.17 571.84,476.34 572.16,466.67 C572.45,458.27 572.96,455.54 575.10,450.95 C580.89,438.60 589.19,433.02 602.88,432.25 C616.45,431.49 622.99,434.15 627.03,442.05 C630.53,448.93 629.52,451.72 622.16,455.45 C617.82,457.65 616.41,457.00 615.54,452.36 C613.99,444.08 610.55,441.00 602.84,441.00 C592.29,441.00 585.95,457.36 590.52,472.77 C593.32,482.18 599.57,487.25 608.47,487.33 C614.09,487.38 618.85,485.34 623.59,480.85 C626.41,478.17 626.80,478.06 628.05,479.56 C629.22,480.97 629.02,481.94 626.60,486.56 C623.60,492.29 619.68,495.85 613.56,498.41 ZM 518.50 498.24 C514.46,500.23 508.48,500.90 502.90,499.97 C497.05,499.00 494.43,497.37 491.69,493.00 C489.62,489.70 489.48,488.16 489.17,465.75 L 488.84 442.00 L 484.92 442.00 C481.50,442.00 481.00,441.71 481.00,439.70 C481.00,438.04 482.44,436.45 486.23,433.95 C489.11,432.05 494.09,427.35 497.30,423.50 C500.51,419.65 504.00,416.36 505.07,416.18 C506.86,415.88 507.00,416.52 507.00,424.93 L 507.00 434.00 L 525.00 434.00 L 525.00 443.00 L 507.00 443.00 L 507.06 462.25 C507.12,483.89 507.87,487.69 512.47,489.90 C515.07,491.14 516.00,491.12 520.10,489.66 L 520.16 489.64 C523.78,488.35 525.16,487.86 525.68,488.33 C526.00,488.61 526.00,489.26 526.00,490.30 L 526.00 490.33 C526.00,492.90 523.08,495.99 518.50,498.24 ZM 567.00 496.61 L 567.00 499.00 L 550.00 499.00 C533.53,499.00 533.00,498.94 533.00,496.95 C533.00,495.55 534.11,494.43 536.50,493.44 L 540.00 491.97 L 540.00 444.97 L 536.50 443.30 C530.62,440.49 531.90,438.64 541.75,435.70 C546.56,434.26 552.41,432.78 554.75,432.41 L 559.00 431.74 L 559.00 461.07 C559.00,485.22 559.00,490.64 561.57,492.50 C562.33,493.05 563.31,493.29 564.57,493.61 C566.30,494.04 567.00,494.91 567.00,496.61 ZM 477.79 496.47 C477.51,498.40 476.72,498.51 460.94,498.77 C451.83,498.92 444.07,498.74 443.69,498.36 C441.94,496.60 443.14,494.13 446.06,493.49 C448.04,493.05 449.45,491.94 450.06,490.34 C450.58,488.98 451.00,478.77 451.00,467.66 C451.00,445.75 450.59,443.87 445.52,442.60 C443.98,442.21 443.00,441.25 443.00,440.14 C443.00,438.78 444.46,437.90 448.75,436.66 C456.40,434.47 466.52,432.00 467.89,432.00 C468.67,432.00 469.00,440.16 469.01,459.75 C469.03,490.36 469.28,491.84 474.81,493.47 C477.29,494.20 478.01,494.93 477.79,496.47 ZM 383.50 618.12 C387.97,620.17 395.42,620.55 399.68,618.93 C411.83,614.33 415.18,594.85 405.37,585.87 C400.06,581.01 390.17,579.81 383.50,583.22 C374.52,587.82 370.54,599.16 374.54,608.75 C376.61,613.70 378.74,615.93 383.50,618.12 ZM 428.42 308.39 C427.55,308.73 423.93,309.00 420.39,309.00 C415.18,309.00 413.80,308.66 413.22,307.25 C412.82,306.29 412.50,292.30 412.50,276.17 L 412.50 246.84 L 415.77 243.92 C420.01,240.13 422.44,240.24 426.60,244.40 L 430.00 247.80 L 430.00 277.79 C430.00,304.22 429.81,307.86 428.42,308.39 ZM 173.50 460.75 L 172.87 463.00 L 186.43 463.00 C196.75,463.00 200.00,462.70 200.00,461.73 C200.00,461.03 198.59,456.86 196.87,452.48 C195.15,448.09 192.31,440.53 190.55,435.69 C188.79,430.84 186.99,426.79 186.55,426.69 C186.12,426.58 184.64,429.65 183.27,433.50 C181.90,437.35 179.28,444.55 177.46,449.50 C175.64,454.45 173.86,459.51 173.50,460.75 ZM 555.27 565.52 C559.38,567.31 560.32,567.31 564.47,565.58 C572.17,562.36 573.69,549.68 567.20,542.75 C565.12,540.52 563.75,540.00 560.04,540.00 C554.56,540.00 551.31,542.02 549.39,546.60 C546.25,554.13 548.93,562.76 555.27,565.52 ZM 655.17 487.69 C656.81,489.43 658.44,490.00 661.77,490.00 C665.47,490.00 666.76,489.44 669.60,486.60 L 673.00 483.20 L 673.00 473.10 C673.00,467.55 672.73,463.00 672.39,463.00 C670.57,463.00 659.11,469.97 656.29,472.78 C653.51,475.55 653.00,476.79 653.00,480.72 C653.00,484.12 653.59,485.99 655.17,487.69 ZM 350.10 488.10 C352.39,490.39 357.94,490.60 361.90,488.55 C366.89,485.97 368.00,483.06 368.00,472.54 C368.00,467.29 367.63,463.00 367.17,463.00 C366.72,463.00 362.78,465.14 358.42,467.75 C352.45,471.33 350.05,473.42 348.67,476.25 C346.56,480.56 347.11,485.11 350.10,488.10 ZM 468.90 421.55 C460.78,429.67 448.02,421.76 451.12,410.53 C452.38,405.95 455.39,404.00 461.17,404.00 C468.20,404.00 471.50,407.16 471.50,413.89 C471.50,418.01 471.02,419.44 468.90,421.55 ZM 555.77 423.00 C551.92,425.35 548.54,425.48 544.78,423.44 C541.23,421.52 540.00,419.08 540.00,413.99 C540.00,410.74 540.63,409.21 542.92,406.92 C545.36,404.49 546.66,404.00 550.75,404.00 C554.61,404.00 556.12,404.50 557.87,406.36 C562.54,411.34 561.52,419.49 555.77,423.00 Z" fill="rgb(4,49,84)"/>
<path d="M 340.80 258.26 C336.93,250.28 334.35,241.62 332.96,232.12 C330.94,218.33 333.74,198.48 339.56,185.28 C347.48,167.31 363.51,150.58 380.50,142.52 C387.51,139.20 393.38,137.15 391.50,138.68 C390.14,139.79 389.97,143.00 391.27,143.00 C393.21,143.00 401.99,152.85 401.41,154.37 C400.94,155.61 405.36,161.62 409.59,165.50 C410.19,166.05 411.86,168.52 413.31,171.00 C414.75,173.48 417.97,177.71 420.47,180.40 C422.96,183.10 425.00,185.96 425.00,186.77 C425.00,187.57 426.50,190.32 428.33,192.87 C430.16,195.41 432.26,199.07 433.00,201.00 C433.73,202.93 434.76,205.06 435.29,205.75 C435.91,206.56 435.87,207.00 435.18,207.00 C434.60,207.00 433.84,206.54 433.49,205.98 C433.14,205.42 432.46,205.22 431.96,205.53 C431.46,205.83 429.92,205.34 428.53,204.43 C423.63,201.22 426.09,203.86 434.09,210.39 C437.56,213.23 440.84,215.66 442.39,216.60 C440.73,215.89 435.43,211.75 420.16,199.25 C408.04,189.33 405.48,189.58 390.95,202.12 C386.25,206.18 372.53,217.96 360.45,228.30 C348.38,238.65 338.11,247.67 337.63,248.36 C337.16,249.03 338.78,253.71 340.80,258.26 ZM 391.00 265.64 L 391.00 228.28 L 398.91 221.14 C403.26,217.21 407.08,214.00 407.40,214.00 C407.71,214.00 414.93,219.61 423.44,226.47 C431.95,233.33 440.07,239.23 441.48,239.58 C445.58,240.61 448.93,238.54 460.04,228.10 L 465.98 222.52 L 460.00 228.15 C449.52,238.01 449.51,238.04 453.25,237.56 C455.86,237.24 457.00,237.48 457.00,238.36 C457.00,239.06 458.35,240.92 460.00,242.50 C461.65,244.08 463.00,246.21 463.00,247.24 C463.00,249.22 466.99,257.27 468.25,257.83 C468.66,258.02 469.07,258.92 469.15,259.83 C469.42,263.03 470.28,247.78 470.63,236.49 L 470.76 255.14 C470.90,274.74 471.37,290.89 471.82,291.95 C462.98,298.02 452.40,303.05 442.00,305.95 C438.96,306.80 434.00,307.55 428.85,308.05 C429.85,306.72 430.00,301.17 430.00,277.79 L 430.00 247.80 L 426.60 244.40 C422.44,240.24 420.01,240.13 415.77,243.92 L 412.50 246.84 L 412.50 276.17 C412.50,292.30 412.82,306.29 413.22,307.25 C413.54,308.03 414.11,308.48 415.44,308.73 C413.60,308.71 412.06,308.60 411.00,308.40 C403.53,307.02 396.67,305.16 390.33,302.78 C390.71,300.72 391.00,284.81 391.00,265.64 ZM 373.03 294.16 C367.61,290.69 362.61,286.65 357.94,281.99 C352.94,277.01 348.70,271.75 345.18,266.15 C346.37,266.43 349.78,263.64 359.16,254.91 L 372.50 242.50 L 372.77 268.64 ZM 485.14 280.61 C485.17,280.58 485.20,280.55 485.23,280.51 L 487.97 277.50 L 487.98 239.97 L 488.00 202.45 L 488.00 277.77 ZM 454.24 207.56 C458.66,203.36 464.92,197.35 473.83,188.77 C464.90,197.37 458.65,203.38 454.24,207.56 Z" fill="rgb(222,93,54)"/>
<path d="M 454.24 207.56 C444.36,216.91 443.65,217.08 442.48,216.63 C442.45,216.62 442.42,216.61 442.39,216.60 C440.84,215.66 437.56,213.23 434.09,210.39 C426.09,203.86 423.63,201.22 428.53,204.43 C429.92,205.34 431.46,205.83 431.96,205.53 C432.46,205.22 433.14,205.42 433.49,205.98 C433.84,206.54 434.60,207.00 435.18,207.00 C435.87,207.00 435.91,206.56 435.29,205.75 C434.76,205.06 433.73,202.93 433.00,201.00 C432.26,199.07 430.16,195.41 428.33,192.87 C426.50,190.32 425.00,187.57 425.00,186.77 C425.00,185.96 422.96,183.10 420.47,180.40 C417.97,177.71 414.75,173.48 413.31,171.00 C411.86,168.52 410.19,166.05 409.59,165.50 C405.36,161.62 400.94,155.61 401.41,154.37 C401.99,152.85 393.21,143.00 391.27,143.00 C389.97,143.00 390.14,139.79 391.50,138.68 C393.38,137.15 387.51,139.20 380.50,142.52 C380.26,142.64 380.02,142.75 379.78,142.87 C385.35,139.96 391.21,137.58 397.07,135.92 C409.12,132.49 429.65,132.50 442.00,135.95 C456.24,139.92 471.83,147.97 480.03,155.60 C482.47,157.87 483.21,157.96 501.03,158.23 L 519.50 158.50 L 472.82 158.50 L 470.41 161.31 C467.33,164.89 467.35,168.44 470.45,171.55 C472.66,173.75 473.74,174.00 481.04,174.00 L 489.17 174.00 L 473.83 188.77 C464.92,197.35 458.66,203.36 454.24,207.56 ZM 488.00 276.94 L 488.00 202.45 L 494.87 195.63 L 501.75 188.80 L 504.54 195.93 C506.59,201.15 507.92,203.19 509.52,203.60 C507.53,203.10 507.50,203.52 507.50,219.79 C507.50,230.99 507.04,238.15 506.11,241.50 C502.44,254.69 496.10,266.95 488.00,276.94 ZM 470.50 218.27 L 470.63 236.49 C470.28,247.78 469.42,263.03 469.15,259.83 C469.07,258.92 468.66,258.02 468.25,257.83 C466.99,257.27 463.00,249.22 463.00,247.24 C463.00,246.21 461.65,244.08 460.00,242.50 C458.35,240.92 457.00,239.06 457.00,238.36 C457.00,237.48 455.86,237.24 453.25,237.56 C449.51,238.04 449.52,238.01 460.00,228.15 L 465.98 222.52 L 465.98 222.52 ZM 367.40 150.56 C361.59,154.96 356.16,160.25 351.44,166.07 C352.81,164.30 354.17,162.65 355.47,161.21 C358.90,157.42 362.95,153.83 367.40,150.56 ZM 463.38 297.14 C466.32,295.52 469.15,293.78 471.82,291.95 C471.84,291.98 471.86,292.00 471.87,292.00 C471.90,292.00 471.95,291.99 471.99,291.98 C471.87,292.06 471.74,292.15 471.62,292.24 C469.24,293.86 466.42,295.53 463.38,297.14 ZM 515.74 202.41 C513.71,203.45 511.28,204.04 509.61,203.62 C511.32,204.01 513.73,203.43 515.74,202.41 Z" fill="rgb(231,141,51)"/>
<path d="M 0.00 384.00 L 0.00 0.00 L 429.50 0.00 L 859.00 0.00 L 859.00 384.00 L 859.00 768.00 L 429.50 768.00 L 0.00 768.00 L 0.00 384.00 ZM 310.00 636.94 C322.79,634.88 333.26,627.90 337.65,618.50 C339.44,614.66 339.98,611.76 339.98,606.00 C339.98,592.97 334.56,584.93 323.63,581.77 L 318.76 580.36 L 323.30 578.63 C329.65,576.21 335.49,569.62 336.83,563.36 C338.86,553.91 335.49,542.52 328.84,536.31 C327.55,535.10 323.80,532.85 320.50,531.31 C314.83,528.66 313.75,528.50 301.00,528.55 C288.59,528.59 287.04,528.80 281.80,531.22 C270.97,536.21 262.69,547.42 261.32,558.92 L 260.72 564.00 L 271.36 564.00 C281.72,564.00 282.00,563.94 282.03,561.75 C282.08,557.52 286.46,550.61 290.57,548.27 C298.29,543.88 311.70,545.84 314.90,551.82 C318.28,558.13 316.64,567.22 311.53,570.57 C310.08,571.52 305.32,572.78 300.95,573.37 L 293.00 574.43 L 293.00 581.71 L 293.00 589.00 L 299.25 589.01 C311.08,589.02 317.03,592.03 319.15,599.09 C321.38,606.56 317.74,614.05 309.91,618.04 C303.27,621.43 291.05,620.07 285.83,615.35 C283.06,612.84 280.00,606.64 280.00,603.54 L 280.00 601.00 L 268.89 601.00 C257.88,601.00 257.79,601.02 258.32,603.25 C258.62,604.49 259.18,607.30 259.57,609.50 C260.55,615.07 263.43,620.42 268.28,625.69 C277.45,635.63 292.64,639.73 310.00,636.94 ZM 402.78 636.49 C413.35,634.00 420.74,628.88 426.64,619.97 C431.65,612.40 433.33,599.57 430.63,589.45 C428.88,582.88 427.62,580.63 422.68,575.27 C417.47,569.62 412.96,567.34 404.05,565.87 C392.41,563.95 382.24,567.05 373.36,575.23 L 368.92 579.32 L 369.55 574.91 C372.15,556.61 381.31,546.00 394.51,546.00 C401.01,546.00 404.84,547.70 408.30,552.13 C410.78,555.29 410.78,555.29 419.64,555.08 C424.51,554.97 428.86,554.52 429.29,554.09 C430.69,552.72 426.07,542.36 422.00,537.74 C419.73,535.15 415.85,532.27 412.79,530.89 C408.10,528.77 406.08,528.50 395.00,528.53 C383.21,528.57 382.16,528.74 376.50,531.53 C364.61,537.38 355.37,549.56 351.48,564.50 C350.62,567.80 349.65,575.02 349.32,580.54 C347.59,609.57 358.55,629.32 379.90,635.64 C388.88,638.30 394.25,638.50 402.78,636.49 ZM 503.00 633.83 C514.78,628.41 523.76,616.66 527.39,601.94 C530.43,589.54 529.17,566.73 524.80,555.50 C522.97,550.77 517.05,541.85 513.62,538.64 C504.83,530.41 495.89,527.49 481.84,528.27 C470.36,528.90 463.70,531.47 456.63,537.99 C442.09,551.39 436.54,576.87 442.53,602.76 C444.52,611.36 448.26,618.34 454.34,624.76 C459.74,630.47 462.32,632.14 470.50,635.18 C478.14,638.01 495.47,637.30 503.00,633.83 ZM 569.58 576.10 C582.47,570.25 587.70,553.68 580.88,540.33 C574.70,528.22 558.01,524.37 546.31,532.35 C535.39,539.79 532.60,557.93 540.69,568.77 C546.89,577.07 560.08,580.42 569.58,576.10 ZM 518.50 498.24 C523.08,495.99 526.00,492.90 526.00,490.33 C526.00,487.55 526.02,487.56 520.10,489.66 C516.00,491.12 515.07,491.14 512.47,489.90 C507.87,487.69 507.12,483.89 507.06,462.25 L 507.00 443.00 L 516.00 443.00 L 525.00 443.00 L 525.00 438.50 L 525.00 434.00 L 516.00 434.00 L 507.00 434.00 L 507.00 424.93 C507.00,416.52 506.86,415.88 505.07,416.18 C504.00,416.36 500.51,419.65 497.30,423.50 C494.09,427.35 489.11,432.05 486.23,433.95 C482.44,436.45 481.00,438.04 481.00,439.70 C481.00,441.71 481.50,442.00 484.92,442.00 L 488.84 442.00 L 489.17 465.75 C489.48,488.16 489.62,489.70 491.69,493.00 C494.43,497.37 497.05,499.00 502.90,499.97 C508.48,500.90 514.46,500.23 518.50,498.24 ZM 357.79 498.10 C359.83,497.05 362.59,495.03 363.92,493.60 C366.69,490.63 368.00,490.30 368.00,492.58 C368.00,493.44 369.32,495.47 370.92,497.08 C373.59,499.74 374.45,500.00 380.67,499.98 C388.63,499.96 395.28,497.00 395.82,493.22 C396.10,491.25 395.70,491.00 392.19,491.00 C385.74,491.00 385.57,490.38 384.98,466.10 C384.67,453.31 383.99,443.44 383.31,441.91 C381.67,438.19 376.57,434.23 371.70,432.91 C365.35,431.19 350.40,432.24 345.50,434.75 C338.57,438.31 334.00,445.15 334.00,451.97 C334.00,455.47 334.79,455.63 341.21,453.45 C345.17,452.09 345.99,451.31 347.46,447.46 C348.40,445.02 350.31,442.12 351.71,441.01 C354.44,438.87 359.93,438.36 362.95,439.97 C365.46,441.32 368.00,448.15 368.00,453.56 C368.00,457.98 367.91,458.11 363.29,460.09 C360.70,461.20 355.63,463.05 352.04,464.19 C335.89,469.34 330.00,474.71 330.00,484.30 C330.00,490.77 331.77,494.77 335.84,497.54 C338.87,499.60 340.66,500.00 346.77,500.00 C351.99,500.00 355.14,499.46 357.79,498.10 ZM 613.56 498.41 C619.68,495.85 623.60,492.29 626.60,486.56 C629.02,481.94 629.22,480.97 628.05,479.56 C626.80,478.06 626.41,478.17 623.59,480.85 C618.85,485.34 614.09,487.38 608.47,487.33 C599.57,487.25 593.32,482.18 590.52,472.77 C585.95,457.36 592.29,441.00 602.84,441.00 C610.55,441.00 613.99,444.08 615.54,452.36 C616.41,457.00 617.82,457.65 622.16,455.45 C629.52,451.72 630.53,448.93 627.03,442.05 C622.99,434.15 616.45,431.49 602.88,432.25 C589.19,433.02 580.89,438.60 575.10,450.95 C572.96,455.54 572.45,458.27 572.16,466.67 C571.84,476.34 571.98,477.17 574.93,483.36 C578.44,490.70 584.02,496.12 590.39,498.38 C596.06,500.40 608.77,500.41 613.56,498.41 ZM 662.79 498.06 C664.83,496.99 667.83,494.95 669.46,493.52 L 672.41 490.91 L 674.21 494.43 C676.57,499.03 678.62,500.00 685.95,500.00 C693.90,500.00 701.00,496.88 701.00,493.39 C701.00,491.27 700.55,491.00 697.04,491.00 C694.14,491.00 692.79,490.48 692.04,489.07 C691.43,487.94 691.00,479.78 691.00,469.61 C691.00,448.48 690.04,443.16 685.28,437.89 C680.74,432.86 676.14,431.65 663.86,432.23 C655.46,432.63 653.53,433.07 648.88,435.70 C642.72,439.18 639.00,445.00 639.00,451.16 C639.00,455.71 640.40,456.04 647.22,453.12 C650.87,451.56 651.81,450.57 652.80,447.28 C654.32,442.19 656.86,439.96 661.90,439.29 C669.24,438.30 672.98,443.17 672.99,453.72 C673.00,458.68 672.33,459.15 659.00,463.50 C643.08,468.70 638.23,472.17 635.87,480.04 C633.54,487.80 636.44,494.94 643.50,498.84 C646.92,500.72 658.60,500.25 662.79,498.06 ZM 174.00 496.71 C174.00,494.84 173.18,494.19 169.52,493.22 C163.45,491.59 163.11,489.57 167.04,478.71 L 170.19 470.00 L 187.00 470.00 L 203.81 470.00 L 207.00 478.75 C209.86,486.61 210.04,487.76 208.81,490.00 C207.95,491.56 206.04,492.85 203.72,493.43 C200.76,494.16 200.00,494.83 200.00,496.68 L 200.00 499.00 L 219.88 499.00 C239.18,499.00 239.78,498.94 240.31,496.92 C240.74,495.27 240.15,494.54 237.45,493.41 C235.57,492.63 233.42,490.98 232.65,489.74 C231.89,488.51 227.75,478.50 223.46,467.50 C219.16,456.50 211.98,438.27 207.51,427.00 L 199.38 406.50 L 192.08 406.50 L 184.78 406.50 L 179.83 419.50 C177.11,426.65 171.51,441.50 167.37,452.50 C151.45,494.83 153.24,491.01 148.35,493.17 C145.36,494.49 144.00,495.70 144.00,497.05 C144.00,498.90 144.79,499.00 159.00,499.00 C173.97,499.00 174.00,499.00 174.00,496.71 ZM 278.00 496.52 C278.00,494.70 277.33,493.87 275.47,493.40 C274.08,493.06 272.51,491.95 271.97,490.95 C271.44,489.95 271.00,480.64 271.00,470.25 L 271.00 451.37 L 273.75 448.75 C282.90,440.02 295.74,443.41 296.20,454.67 C296.67,466.30 296.67,471.12 296.20,480.88 L 295.69 491.25 L 292.34 493.22 C290.42,494.36 289.00,496.00 289.00,497.10 C289.00,498.89 289.95,499.00 305.33,499.00 C314.32,499.00 321.92,498.75 322.22,498.44 C323.48,497.19 321.67,494.41 318.68,493.00 L 315.50 491.50 L 315.00 469.00 C314.55,448.80 314.28,446.03 312.38,441.91 C309.35,435.36 305.32,432.83 297.01,432.23 C291.25,431.82 289.42,432.12 284.87,434.24 C281.91,435.61 277.59,438.52 275.25,440.71 L 271.00 444.69 L 271.00 438.35 C271.00,432.38 270.86,432.00 268.68,432.00 C267.41,432.00 264.14,432.63 261.43,433.41 C258.72,434.19 253.91,435.55 250.75,436.44 C244.04,438.32 242.97,440.92 248.04,443.02 C249.71,443.71 251.51,445.08 252.04,446.07 C253.42,448.65 253.28,487.30 251.87,490.38 C251.26,491.73 249.73,493.10 248.48,493.41 C246.14,494.00 244.57,496.50 245.56,498.09 C245.87,498.59 253.29,499.00 262.06,499.00 L 278.00 499.00 L 278.00 496.52 ZM 434.00 496.50 C434.00,494.91 433.44,494.00 432.45,494.00 C431.60,494.00 429.80,492.90 428.45,491.55 L 426.00 489.09 L 426.00 444.55 C426.00,406.55 425.79,400.00 424.57,400.00 C423.78,400.00 417.90,401.35 411.50,403.00 C405.10,404.65 399.67,406.00 399.43,406.00 C399.19,406.00 399.00,407.12 399.00,408.50 C399.00,410.48 399.50,411.00 401.43,411.00 C407.02,411.00 407.00,410.87 407.00,451.49 C407.00,472.03 406.72,489.56 406.38,490.46 C406.04,491.35 404.46,492.74 402.88,493.56 C401.18,494.44 400.00,495.86 400.00,497.03 C400.00,498.91 400.74,499.00 417.00,499.00 L 434.00 499.00 L 434.00 496.50 ZM 477.79 496.47 C478.01,494.93 477.29,494.20 474.81,493.47 C469.28,491.84 469.03,490.36 469.01,459.75 C469.00,440.16 468.67,432.00 467.89,432.00 C466.52,432.00 456.40,434.47 448.75,436.66 C444.46,437.90 443.00,438.78 443.00,440.14 C443.00,441.25 443.98,442.21 445.52,442.60 C450.59,443.87 451.00,445.75 451.00,467.66 C451.00,478.77 450.58,488.98 450.06,490.34 C449.45,491.94 448.04,493.05 446.06,493.49 C443.14,494.13 441.94,496.60 443.69,498.36 C444.07,498.74 451.83,498.92 460.94,498.77 C476.72,498.51 477.51,498.40 477.79,496.47 ZM 567.00 496.61 C567.00,494.91 566.30,494.04 564.57,493.61 C558.98,492.20 559.00,492.30 559.00,460.80 L 559.00 431.74 L 554.75 432.41 C552.41,432.78 546.56,434.26 541.75,435.70 C531.90,438.64 530.62,440.49 536.50,443.30 L 540.00 444.97 L 540.00 468.47 L 540.00 491.97 L 536.50 493.44 C534.11,494.43 533.00,495.55 533.00,496.95 C533.00,498.94 533.53,499.00 550.00,499.00 L 567.00 499.00 L 567.00 496.61 ZM 468.90 421.55 C471.02,419.44 471.50,418.01 471.50,413.89 C471.50,407.16 468.20,404.00 461.17,404.00 C455.39,404.00 452.38,405.95 451.12,410.53 C448.02,421.76 460.78,429.67 468.90,421.55 ZM 555.77 423.00 C561.52,419.49 562.54,411.34 557.87,406.36 C556.12,404.50 554.61,404.00 550.75,404.00 C546.66,404.00 545.36,404.49 542.92,406.92 C540.63,409.21 540.00,410.74 540.00,413.99 C540.00,419.08 541.23,421.52 544.78,423.44 C548.54,425.48 551.92,425.35 555.77,423.00 ZM 457.00 364.14 C511.13,353.62 556.45,327.49 614.52,273.33 C630.39,258.53 656.63,231.43 658.70,227.71 C660.92,223.71 660.25,218.65 656.89,214.00 C648.49,202.41 608.51,164.24 581.80,142.31 C533.96,103.04 493.51,84.08 443.66,77.54 C384.93,69.84 324.48,89.79 266.50,135.99 C244.55,153.49 233.48,163.50 207.34,189.49 C186.26,210.44 181.98,215.18 180.95,218.70 C179.96,222.07 179.97,223.55 181.01,226.20 C182.70,230.50 225.98,273.67 244.50,289.54 C298.90,336.14 346.13,359.56 398.50,365.90 C411.77,367.51 444.79,366.51 457.00,364.14 ZM 383.50 618.12 C378.74,615.93 376.61,613.70 374.54,608.75 C370.54,599.16 374.52,587.82 383.50,583.22 C390.17,579.81 400.06,581.01 405.37,585.87 C415.18,594.85 411.83,614.33 399.68,618.93 C395.42,620.55 387.97,620.17 383.50,618.12 ZM 477.89 617.49 C467.96,614.32 462.69,604.85 461.38,587.84 C460.13,571.54 465.11,555.60 473.11,550.31 C477.39,547.47 484.49,546.31 490.53,547.44 C495.70,548.41 502.17,555.19 504.99,562.59 C508.11,570.75 508.96,589.72 506.62,598.84 C502.76,613.91 490.86,621.63 477.89,617.49 ZM 555.27 565.52 C548.93,562.76 546.25,554.13 549.39,546.60 C551.31,542.02 554.56,540.00 560.04,540.00 C563.75,540.00 565.12,540.52 567.20,542.75 C573.69,549.68 572.17,562.36 564.47,565.58 C560.32,567.31 559.38,567.31 555.27,565.52 ZM 350.10 488.10 C347.11,485.11 346.56,480.56 348.67,476.25 C350.05,473.42 352.45,471.33 358.42,467.75 C362.78,465.14 366.72,463.00 367.17,463.00 C367.63,463.00 368.00,467.29 368.00,472.54 C368.00,483.06 366.89,485.97 361.90,488.55 C357.94,490.60 352.39,490.39 350.10,488.10 ZM 655.17 487.69 C653.59,485.99 653.00,484.12 653.00,480.72 C653.00,476.79 653.51,475.55 656.29,472.78 C659.11,469.97 670.57,463.00 672.39,463.00 C672.73,463.00 673.00,467.55 673.00,473.10 L 673.00 483.20 L 669.60 486.60 C666.76,489.44 665.47,490.00 661.77,490.00 C658.44,490.00 656.81,489.43 655.17,487.69 ZM 173.50 460.75 C173.86,459.51 175.64,454.45 177.46,449.50 C179.28,444.55 181.90,437.35 183.27,433.50 C184.64,429.65 186.12,426.58 186.55,426.69 C186.99,426.79 188.79,430.84 190.55,435.69 C192.31,440.53 195.15,448.09 196.87,452.48 C198.59,456.86 200.00,461.03 200.00,461.73 C200.00,462.70 196.75,463.00 186.43,463.00 L 172.87 463.00 L 173.50 460.75 ZM 401.50 333.02 C376.71,328.54 356.97,318.11 339.22,300.11 C325.05,285.74 316.65,271.33 311.07,251.77 C303.22,224.28 306.03,192.70 318.53,168.00 C331.06,143.23 355.24,121.87 380.53,113.22 C397.53,107.40 402.55,106.60 421.50,106.65 C437.58,106.69 440.51,106.97 449.00,109.25 C467.84,114.33 485.72,123.75 498.75,135.47 L 503.79 140.00 L 519.70 140.00 L 535.60 140.00 L 547.21 148.75 C578.29,172.19 626.00,216.96 626.00,222.68 C626.00,223.88 619.74,230.79 609.75,240.62 C595.63,254.52 586.56,262.70 563.50,282.38 C551.18,292.89 526.31,310.65 525.32,309.65 C525.03,309.37 525.92,307.64 527.29,305.82 C532.66,298.67 539.90,282.33 543.16,270.00 C546.09,258.94 546.81,235.13 544.56,223.94 C543.01,216.23 536.86,198.68 535.00,196.66 C534.57,196.20 534.46,201.66 534.75,208.79 C536.22,244.92 525.42,275.45 502.60,299.70 C476.81,327.10 438.53,339.72 401.50,333.02 ZM 442.00 305.95 C451.29,303.36 463.85,297.54 471.62,292.24 C487.48,281.40 500.23,262.65 506.11,241.50 C507.04,238.15 507.50,230.99 507.50,219.79 C507.50,203.30 507.53,203.09 509.61,203.62 C512.83,204.42 518.84,201.51 519.50,198.82 C519.81,197.54 519.94,187.95 519.78,177.50 L 519.50 158.50 L 501.03 158.23 C483.21,157.96 482.47,157.87 480.03,155.60 C471.83,147.97 456.24,139.92 442.00,135.95 C429.65,132.50 409.12,132.49 397.07,135.92 C381.38,140.38 365.68,149.93 355.47,161.21 C349.68,167.61 342.69,178.19 339.56,185.28 C333.74,198.48 330.94,218.33 332.96,232.12 C335.85,251.89 343.93,268.01 357.94,281.99 C371.88,295.90 388.71,304.28 411.00,308.40 C416.51,309.42 434.72,307.98 442.00,305.95 ZM 299.09 298.88 C280.09,285.03 268.97,275.92 251.50,259.89 C233.04,242.96 214.00,223.81 214.00,222.18 C214.00,218.96 245.34,188.10 267.00,169.97 C282.51,157.00 306.00,140.13 306.00,141.97 C306.00,142.55 303.70,146.69 300.89,151.17 C287.16,173.09 280.37,203.14 282.93,230.70 C285.26,255.84 293.01,277.44 307.41,298.96 C310.49,303.55 313.00,307.46 313.00,307.65 C313.00,308.75 310.26,307.02 299.09,298.88 Z" fill="rgb(254,254,254)"/>
</g>
</svg>